<?xml version="1.0" encoding="utf-8"?>
<!-- Svg Vector Icons : http://www.onlinewebfonts.com/icon -->
<!DOCTYPE svg PUBLIC "-//W3C//DTD SVG 1.1//EN" "http://www.w3.org/Graphics/SVG/1.1/DTD/svg11.dtd">
<svg version="1.1" xmlns="http://www.w3.org/2000/svg" xmlns:xlink="http://www.w3.org/1999/xlink" x="0px" y="0px" viewBox="0 0 1000 1000" enable-background="new 0 0 1000 1000" xml:space="preserve">
<metadata> Svg Vector Icons : http://www.onlinewebfonts.com/icon </metadata>
<g><g transform="translate(0.000000,511.000000) scale(0.100000,-0.100000)"><path d="M5749.4,456.5C4452.2-1103.6,3387.5-2376.9,3381-2376.9c-6.5,0-630.1,730.1-1384.1,1623.1C1240.8,139.3,580.2,917.2,530.2,975.9l-93.4,104.3L267.3,938.9L100,795.5l1642.7-1936C2646.6-2205.2,3394.1-3070,3402.7-3059.1c23.9,26.1,5004.1,6010.1,5036.7,6049.2c21.7,30.4,4.3,54.3-134.7,169.5c-89.1,71.7-169.5,132.5-180.4,130.4C8115.7,3290,7046.6,2014.5,5749.4,456.5z"/><path d="M7218.3,478.3C5927.6-1071,4860.7-2346.4,4845.5-2357.3c-17.4-15.2-65.2,26.1-158.6,141.2c-73.9,89.1-141.2,163-149.9,160.8c-13,0-193.4-210.8-258.6-302c-21.7-30.4,17.4-86.9,258.6-371.6c154.3-184.7,284.6-339,289-341.1c4.4-4.3,1134.2,1345,2511.8,2998.5C8713.2,1579.9,9858.3,2953.2,9880,2977.1c37,43.5,34.8,45.6-113,169.5c-82.6,69.5-160.8,130.4-176,134.7C9573.7,3287.8,8615.4,2153.6,7218.3,478.3z"/></g></g>
</svg>